# xmcd CD database file generated by OrangeCD 5.2
#
# Track frame offsets:
#	182
#	18307
#	41900
#	51865
#	68900
#	84800
#	101217
#	119385
#	130635
#	141675
#	157487
#	170640
#	185872
#	205855
#	224945
#	245845
#
# Disc length: 3521 seconds
#
# Revision: 5
# Processed by: cddbd v1.5.1PL0 Copyright (c) Steve Scherf et al.
# Submitted via: OrangeCD 5.2
#
DISCID=080dbf10
DTITLE=Various Artist - New Country November 1994
DYEAR=1994
DGENRE=Country
TTITLE0=Lynyrd Skynyrd - Sweet Home Alabama
TTITLE1=Terry Mcbride and The Ride - Staurday Night Special
TTITLE2=Clay Walker - If I Could Make A Living
TTITLE3=John and Audrey Wiggins - Memory Making Night
TTITLE4=Kenny Baker and Bill Monroe - Jerusalem Ridge
TTITLE5=Cliff Eberhardt - Ever Since I Lost Your Love
TTITLE6=Jim Lauderdale - Run Like You
TTITLE7=Barry and Holly Tashian - Is My Home Still Up There
TTITLE8=Mike Cross - Riding With Me
TTITLE9=Lisa Brokop - Take That
TTITLE10=Bryan White - You Know How I Feel
TTITLE11=Amy Fradon and Leslie Ritter - Lay Your Head (Upon My Shoulders)
TTITLE12=Allman Brothers Band - Soulshine
TTITLE13=Waylon Jennings - Waymore's Blues (Part II)
TTITLE14=David Grisman&Tony Rice - Dawg After Dark
TTITLE15=Hackberry Ramblers - Old Pipeliner
EXTD=
EXTT0=
EXTT1=
EXTT2=
EXTT3=
EXTT4=
EXTT5=
EXTT6=
EXTT7=
EXTT8=
EXTT9=
EXTT10=
EXTT11=
EXTT12=
EXTT13=
EXTT14=
EXTT15=
PLAYORDER=
